<svg version="1.1" xmlns="http://www.w3.org/2000/svg" xmlns:xlink="http://www.w3.org/1999/xlink" width="256.000000pt" height="247.000000pt" viewBox="0,0,256,247"><g fill="#ffffff" fill-rule="nonzero" stroke="none" stroke-width="1" stroke-linecap="butt" stroke-linejoin="miter" stroke-miterlimit="10" stroke-dasharray="" stroke-dashoffset="0" font-family="none" font-weight="none" font-size="none" text-anchor="none" style="mix-blend-mode: normal"><g transform="translate(0,0)"><g><g transform="translate(0.11893,0)"><g transform="translate(0,247) scale(0.1,-0.1)"><path d="M549,2173c-310,-313 -357,-373 -448,-564c-45,-94 -80,-201 -94,-284c-5,-28 31,-67 634,-675l639,-645l635,640l636,640l-6,58c-6,72 -44,187 -96,293c-77,158 -150,247 -441,545l-278,284l-97,-97l-96,-97l131,-137c119,-123 132,-140 132,-172c0,-34 -17,-53 -260,-297l-260,-260l-260,260c-236,237 -260,264 -260,294c0,29 17,51 129,170l128,136l-91,98l-92,98zM598,1568l-3,-253l-252,-3c-139,-1 -253,1 -253,5c0,10 493,503 503,503c4,0 6,-114 5,-252zM892,1573c137,-137 248,-251 248,-256c0,-4 -114,-6 -252,-5l-253,3l-3,253c-1,138 1,252 5,252c4,0 119,-111 255,-247zM1928,1568l-3,-253l-252,-3c-139,-1 -253,1 -253,5c0,10 493,503 503,503c4,0 6,-114 5,-252zM2222,1573c137,-137 248,-251 248,-256c0,-4 -114,-6 -252,-5l-253,3l-3,253c-1,138 1,252 5,252c4,0 119,-111 255,-247zM598,1025c1,-132 0,-246 -3,-254c-4,-10 -71,50 -216,195c-116,115 -229,230 -251,257l-40,47l253,-2l254,-3zM1040,1163c-277,-285 -395,-403 -402,-403c-5,0 -8,115 -8,255v255h257h258zM1930,1015c0,-140 -3,-255 -8,-255c-7,0 -125,118 -402,403l-105,107h258h257zM2470,1263c0,-13 -493,-502 -502,-497c-9,6 -11,488 -1,497c8,9 503,9 503,0zM1260,895v-255h-257h-258l255,255c140,140 256,255 257,255c2,0 3,-115 3,-255zM1565,893l250,-253h-258h-257v255c0,140 3,254 8,253c4,0 119,-115 257,-255zM1260,344c0,-141 -3,-254 -7,-252c-5,2 -120,117 -257,256l-249,252h256h257zM1564,348c-137,-139 -252,-254 -256,-256c-5,-2 -8,111 -8,252v256h257h256z"></path><path d="M1249,2204c-13,-48 -29,-89 -36,-91c-6,-3 -32,5 -57,16c-25,11 -46,18 -46,15c0,-3 10,-28 21,-55c12,-27 20,-51 18,-53c-2,-1 -47,-16 -99,-33l-95,-30l90,-27c50,-16 94,-31 98,-35c4,-4 -2,-29 -13,-56c-11,-26 -19,-49 -18,-51c2,-1 23,6 47,17c24,10 47,19 52,19c5,0 21,-40 36,-90c15,-49 30,-90 34,-90c3,0 18,41 33,91c29,100 25,97 99,65l39,-17l-7,23c-4,13 -14,36 -22,52c-8,15 -11,32 -6,36c4,4 49,20 98,36l90,27l-95,30c-52,17 -96,31 -98,32c-1,1 6,26 18,54c11,28 20,54 20,56c0,2 -21,-5 -46,-16c-25,-11 -51,-19 -57,-16c-7,2 -23,43 -36,91c-13,47 -27,86 -31,86c-4,0 -18,-39 -31,-86z"></path></g></g></g></g></g></svg>